<svg id="visual" viewBox="0 0 600 900" width="600" height="900" xmlns="http://www.w3.org/2000/svg" xmlns:xlink="http://www.w3.org/1999/xlink" version="1.1"><rect x="0" y="0" width="600" height="900" fill="#FFCF00"></rect><path d="M0 527L100 600L200 564L300 648L400 560L500 642L600 657L600 901L500 901L400 901L300 901L200 901L100 901L0 901Z" fill="#ff9c00"></path><path d="M0 631L100 627L200 701L300 615L400 622L500 697L600 665L600 901L500 901L400 901L300 901L200 901L100 901L0 901Z" fill="#ffb000"></path><path d="M0 639L100 689L200 647L300 674L400 651L500 712L600 742L600 901L500 901L400 901L300 901L200 901L100 901L0 901Z" fill="#ffc300"></path><path d="M0 692L100 691L200 766L300 766L400 699L500 768L600 691L600 901L500 901L400 901L300 901L200 901L100 901L0 901Z" fill="#ffd700"></path><path d="M0 767L100 825L200 754L300 769L400 783L500 768L600 817L600 901L500 901L400 901L300 901L200 901L100 901L0 901Z" fill="#ffeb00"></path><path d="M0 824L100 812L200 852L300 841L400 804L500 816L600 850L600 901L500 901L400 901L300 901L200 901L100 901L0 901Z" fill="#fcff00"></path></svg>