<svg id="visual" viewBox="0 0 900 450" width="900" height="450" xmlns="http://www.w3.org/2000/svg" xmlns:xlink="http://www.w3.org/1999/xlink" version="1.1"><g><g transform="translate(374 371)"><path d="M64 -74.2C82.2 -61 95.5 -40.1 99.6 -17.5C103.7 5.1 98.4 29.5 86.8 50.4C75.1 71.4 56.9 89 35.7 95.6C14.5 102.2 -9.7 97.8 -33.1 89.8C-56.4 81.7 -78.7 70.1 -90.2 51.5C-101.6 32.9 -102.1 7.4 -99 -18.7C-95.9 -44.8 -89.2 -71.6 -72.1 -84.9C-55 -98.3 -27.5 -98.3 -2.3 -95.6C22.9 -92.9 45.9 -87.4 64 -74.2Z" stroke="#FF9C00" fill="none" stroke-width="26"></path></g><g transform="translate(646 387)"><path d="M37.9 -47C47.8 -36.9 53.5 -23.7 57.3 -9.1C61 5.4 62.8 21.3 56.9 34.2C51.1 47 37.6 56.8 23 61.2C8.4 65.6 -7.4 64.6 -20.1 58.6C-32.9 52.5 -42.7 41.4 -49.4 28.9C-56.2 16.4 -60.1 2.6 -58.7 -11.2C-57.2 -25 -50.6 -38.7 -40 -48.7C-29.3 -58.7 -14.7 -65 -0.3 -64.7C14 -64.3 28 -57.2 37.9 -47Z" stroke="#FF9C00" fill="none" stroke-width="26"></path></g><g transform="translate(876 79)"><path d="M45.9 -55.4C58.7 -44 67.8 -28.8 70.9 -12.3C74 4.2 71.3 21.9 63.1 36.7C54.9 51.6 41.2 63.6 25.7 68.2C10.2 72.8 -7.1 69.9 -23.7 64.2C-40.4 58.6 -56.4 50.2 -62.7 37.2C-69.1 24.2 -65.8 6.6 -60.8 -8.9C-55.9 -24.3 -49.3 -37.7 -38.9 -49.5C-28.5 -61.3 -14.3 -71.6 1.2 -72.9C16.6 -74.3 33.1 -66.8 45.9 -55.4Z" stroke="#FF9C00" fill="none" stroke-width="26"></path></g><g transform="translate(19 341)"><path d="M34.1 -40.2C44.3 -32.2 52.5 -21.4 55.4 -9.2C58.2 3.1 55.7 16.9 49.2 28.6C42.7 40.4 32.2 50.2 19.8 55C7.3 59.9 -7.3 59.9 -19.4 54.8C-31.5 49.7 -41.1 39.5 -48.8 27.5C-56.6 15.5 -62.5 1.7 -59.8 -10.1C-57.2 -21.9 -46.1 -31.8 -34.7 -39.6C-23.3 -47.3 -11.7 -53 0.2 -53.2C12 -53.4 24 -48.1 34.1 -40.2Z" stroke="#FF9C00" fill="none" stroke-width="26"></path></g><g transform="translate(204 15)"><path d="M21.5 -24.7C28.2 -20 34.2 -13.5 35.6 -6.2C37.1 1.2 34 9.5 29.6 17.2C25.3 24.9 19.8 32 12.3 35.4C4.9 38.7 -4.5 38.4 -12.4 35C-20.2 31.7 -26.7 25.4 -31.2 17.9C-35.7 10.3 -38.4 1.5 -36.7 -6.2C-35.1 -14 -29.1 -20.8 -22.3 -25.5C-15.4 -30.2 -7.7 -32.8 -0.2 -32.6C7.4 -32.4 14.8 -29.4 21.5 -24.7Z" stroke="#FF9C00" fill="none" stroke-width="26"></path></g></g></svg>